<svg xmlns="http://www.w3.org/2000/svg" style="isolation:isolate" viewBox="376 403 40 107" width="40" height="107"><path fill="#020404" fill-opacity=".4" d="M376 420h40v90h-40z"/><defs><filter id="a" x="-200%" y="-200%" width="400%" height="400%" filterUnits="objectBoundingBox" color-interpolation-filters="sRGB"><feGaussianBlur xmlns="http://www.w3.org/2000/svg" in="SourceGraphic"/><feOffset xmlns="http://www.w3.org/2000/svg" dx="3" dy="3" result="pf_100_offsetBlur"/><feFlood xmlns="http://www.w3.org/2000/svg" flood-color="#000" flood-opacity=".1"/><feComposite xmlns="http://www.w3.org/2000/svg" in2="pf_100_offsetBlur" operator="in" result="pf_100_dropShadow"/><feBlend xmlns="http://www.w3.org/2000/svg" in="SourceGraphic" in2="pf_100_dropShadow"/></filter></defs><g filter="url(#a)"><path d="M392.767 464.489l9.082-9.272a1.058 1.058 0 0 0-.009-1.488l-1.623-1.623a1.058 1.058 0 0 0-1.5.004l-11.557 11.631a1.05 1.05 0 0 0-.31.748c-.001.28.111.55.31.748l11.557 11.63a1.058 1.058 0 0 0 1.5.005l1.623-1.624c.41-.41.414-1.073.009-1.487l-9.082-9.272z" fill="#FFF"/></g></svg>