<?xml version="1.0" standalone="no"?><!-- Generator: Gravit.io --><svg xmlns="http://www.w3.org/2000/svg" xmlns:xlink="http://www.w3.org/1999/xlink" style="isolation:isolate" viewBox="1206 403 40 107" width="40" height="107"><g><rect x="1206" y="420" width="40" height="90" transform="matrix(1,0,0,1,0,0)" fill="rgb(0,0,0)" fill-opacity="0.4"/><defs><filter id="PmZAcfqJvatjdqTDHDRRm4fveIvvd6Hh" x="-200%" y="-200%" width="400%" height="400%" filterUnits="objectBoundingBox" color-interpolation-filters="sRGB"><feGaussianBlur xmlns="http://www.w3.org/2000/svg" in="SourceGraphic" stdDeviation="0"/><feOffset xmlns="http://www.w3.org/2000/svg" dx="3" dy="3" result="pf_100_offsetBlur"/><feFlood xmlns="http://www.w3.org/2000/svg" flood-color="#000000" flood-opacity="0.1"/><feComposite xmlns="http://www.w3.org/2000/svg" in2="pf_100_offsetBlur" operator="in" result="pf_100_dropShadow"/><feBlend xmlns="http://www.w3.org/2000/svg" in="SourceGraphic" in2="pf_100_dropShadow" mode="normal"/></filter></defs><g filter="url(#PmZAcfqJvatjdqTDHDRRm4fveIvvd6Hh)"><path d=" M 1229.233 464.489 L 1220.151 455.217 C 1219.746 454.802 1219.75 454.139 1220.16 453.729 L 1221.783 452.106 C 1221.982 451.907 1222.253 451.795 1222.534 451.796 C 1222.816 451.797 1223.085 451.91 1223.283 452.11 L 1234.84 463.741 C 1235.039 463.939 1235.151 464.208 1235.15 464.489 C 1235.151 464.769 1235.039 465.039 1234.84 465.237 L 1223.283 476.867 C 1223.085 477.068 1222.816 477.181 1222.534 477.181 C 1222.253 477.182 1221.982 477.071 1221.783 476.872 L 1220.16 475.248 C 1219.75 474.838 1219.746 474.175 1220.151 473.761 L 1229.233 464.489 Z " fill="rgb(255,255,255)"/></g></g></svg>