<?xml version="1.0" standalone="no"?><!-- Generator: Gravit.io --><svg xmlns="http://www.w3.org/2000/svg" xmlns:xlink="http://www.w3.org/1999/xlink" style="isolation:isolate" viewBox="376 403 40 107" width="40" height="107"><g><rect x="376" y="420" width="40" height="90" transform="matrix(1,0,0,1,0,0)" fill="rgb(2,4,4)" fill-opacity="0.4"/><defs><filter id="Qxi2jF6rpB7q586r7lFTtCOPuUQmifYF" x="-200%" y="-200%" width="400%" height="400%" filterUnits="objectBoundingBox" color-interpolation-filters="sRGB"><feGaussianBlur xmlns="http://www.w3.org/2000/svg" in="SourceGraphic" stdDeviation="0"/><feOffset xmlns="http://www.w3.org/2000/svg" dx="3" dy="3" result="pf_100_offsetBlur"/><feFlood xmlns="http://www.w3.org/2000/svg" flood-color="#000000" flood-opacity="0.1"/><feComposite xmlns="http://www.w3.org/2000/svg" in2="pf_100_offsetBlur" operator="in" result="pf_100_dropShadow"/><feBlend xmlns="http://www.w3.org/2000/svg" in="SourceGraphic" in2="pf_100_dropShadow" mode="normal"/></filter></defs><g filter="url(#Qxi2jF6rpB7q586r7lFTtCOPuUQmifYF)"><path d=" M 392.767 464.489 L 401.849 455.217 C 402.254 454.802 402.25 454.139 401.84 453.729 L 400.217 452.106 C 400.018 451.907 399.747 451.795 399.466 451.796 C 399.184 451.797 398.915 451.91 398.717 452.11 L 387.16 463.741 C 386.961 463.939 386.849 464.208 386.85 464.489 C 386.849 464.769 386.961 465.039 387.16 465.237 L 398.717 476.867 C 398.915 477.068 399.184 477.181 399.466 477.181 C 399.747 477.182 400.018 477.071 400.217 476.872 L 401.84 475.248 C 402.25 474.838 402.254 474.175 401.849 473.761 L 392.767 464.489 Z " fill="rgb(255,255,255)"/></g></g></svg>